<svg width="229" height="101" viewBox="0 0 229 101" fill="none" xmlns="http://www.w3.org/2000/svg">
<path d="M60.872 97.944C57.6293 98.5413 53.4053 98.84 48.2 98.84C44.616 98.84 42.0133 98.8827 40.392 98.968L40.008 96.28C38.984 96.28 38.2587 96.3227 37.832 96.408C37.2347 91.8853 36.8507 85.3573 36.68 76.824C36.5093 70.5947 36.296 65.9867 36.04 63C34.1627 62.8293 33.0107 62.744 32.584 62.744C30.1093 62.744 27.848 62.9573 25.8 63.384C25.7147 64.664 25.672 66.7547 25.672 69.656L25.8 77.336C25.8853 79.0427 25.928 81.56 25.928 84.888C25.928 90.264 25.6293 94.4453 25.032 97.432C23.496 98.3707 21.4053 98.84 18.76 98.84C17.736 98.84 16.2 98.7547 14.152 98.584C12.104 98.4133 10.7387 98.328 10.056 98.328C8.52 98.328 6.94133 98.7547 5.32 99.608L5.064 96.024C4.296 96.1947 3.528 96.536 2.76 97.048C2.248 90.9893 1.77867 79.896 1.352 63.768C0.925333 47.5547 0.712 32.7493 0.712 19.352C0.712 12.0987 0.754667 7.10666 0.84 4.376L2.76 4.24799C3.95467 4.504 5.10667 4.632 6.216 4.632C7.06933 4.632 8.52 4.54666 10.568 4.376C12.9573 4.20533 14.8347 4.12 16.2 4.12C17.224 4.12 18.0773 4.33333 18.76 4.75999C19.4427 5.10133 19.912 5.82666 20.168 6.936C20.68 7.02133 21.1067 7.10666 21.448 7.19199C21.8747 7.27733 22.216 7.36266 22.472 7.448C22.8133 10.4347 23.0693 14.7867 23.24 20.504C23.5813 28.6107 24.136 34.712 24.904 38.808H26.312C28.9573 38.808 31.3467 38.6373 33.48 38.296H34.376C34.888 32.152 35.144 26.0933 35.144 20.12C35.144 13.464 35.016 8.42933 34.76 5.016C38.856 3.82133 43.7627 3.224 49.48 3.224H51.272C52.6373 3.224 53.832 3.30933 54.856 3.48V5.91199C55.88 5.91199 56.7333 5.95466 57.416 6.03999L60.872 97.944ZM53.576 4.632C52.6373 4.54666 51.272 4.504 49.48 4.504C43.9333 4.504 39.4533 5.016 36.04 6.03999C36.296 11.16 36.424 15.896 36.424 20.248C36.424 26.4773 36.1253 32.8773 35.528 39.448H35.4C32.4133 39.8747 29.4693 40.088 26.568 40.088C24.52 40.088 22.856 39.9173 21.576 39.576H21.448C20.68 35.5653 20.1253 29.5067 19.784 21.4C19.6133 15.4267 19.272 10.264 18.76 5.91199C17.6507 5.57066 16.1147 5.39999 14.152 5.39999L10.696 5.52799L6.472 5.784L5.32 5.91199C4.38133 5.91199 3.44267 5.78399 2.504 5.52799L2.12 5.656C2.03467 8.38667 1.992 12.952 1.992 19.352C1.992 32.92 2.16267 47.384 2.504 62.744C2.93067 78.104 3.4 88.8133 3.912 94.872C4.50933 94.5307 5.448 94.36 6.728 94.36C7.752 94.36 9.288 94.4453 11.336 94.616C13.128 94.872 14.8347 95 16.456 95C17.6507 95 18.5893 94.9573 19.272 94.872C20.04 94.7867 20.7227 94.5307 21.32 94.104C21.7467 91.1173 21.96 87.448 21.96 83.096C21.96 79.768 21.9173 77.2507 21.832 75.544L21.704 68.12C21.704 65.3893 21.832 62.616 22.088 59.8C24.392 59.2027 26.9947 58.904 29.896 58.904C31.8587 58.904 34.2053 59.1173 36.936 59.544L37.064 59.672C37.4907 63.1707 37.7893 68.7173 37.96 76.312C37.96 84.1627 38.3013 90.392 38.984 95H39.112C39.7947 94.9147 41.032 94.872 42.824 94.872H47.432C51.3573 94.872 54.5573 94.6587 57.032 94.232L53.576 4.632ZM84.683 69.144C84.683 71.3627 84.811 73.1973 85.067 74.648C85.4083 76.0133 86.0483 77.5067 86.987 79.128V79.384C88.0963 79.9813 89.4617 80.28 91.083 80.28C92.875 80.28 94.3683 79.4693 95.563 77.848C96.7577 76.1413 97.355 73.624 97.355 70.296V69.016C99.2323 69.1867 100.64 69.272 101.579 69.272L106.059 69.144C106.998 69.0587 108.448 69.016 110.411 69.016C111.862 69.016 113.782 69.2293 116.171 69.656L116.043 71.832L118.731 72.216C118.731 81.432 117.707 88.0453 115.659 92.056C113.696 96.0667 111.136 98.456 107.979 99.224C104.907 100.077 100.171 100.504 93.771 100.504C88.651 100.504 84.555 100.12 81.483 99.352C78.4963 98.6693 75.9363 97.048 73.803 94.488C69.8777 91.2453 66.9763 86.5947 65.099 80.536C63.2217 74.4773 62.283 67.9067 62.283 60.824C62.283 52.5467 63.2643 45.7627 65.227 40.472C67.019 36.376 70.1337 33.2613 74.571 31.128C79.0083 28.9093 83.9577 27.8 89.419 27.8C95.9897 27.8 101.494 29.208 105.931 32.024C110.454 34.84 113.782 38.6373 115.915 43.416C118.134 48.1093 119.243 53.272 119.243 58.904C119.243 59.416 119.115 61.592 118.859 65.432C117.238 65.8587 112.928 66.2427 105.931 66.584C99.019 66.9253 92.875 67.096 87.499 67.096C86.219 67.096 85.2803 67.0533 84.683 66.968V69.144ZM80.843 62.872C81.867 63.128 84.811 63.256 89.675 63.256C94.3683 63.256 99.4457 63.128 104.907 62.872C110.368 62.5307 113.782 62.1893 115.147 61.848C115.318 59.288 115.403 57.4533 115.403 56.344C115.403 47.8107 113.483 41.1547 109.643 36.376C105.888 31.512 99.147 29.08 89.419 29.08C84.299 29.08 79.563 30.1467 75.211 32.28C70.9443 34.328 68.0003 37.1867 66.379 40.856C64.4163 46.1467 63.435 53.2293 63.435 62.104C63.435 70.9787 64.9283 78.6587 67.915 85.144C70.9017 91.6293 75.5523 95.3413 81.867 96.28L87.499 96.408C90.4003 96.5787 92.6617 96.664 94.283 96.664C98.2937 96.664 101.707 96.2373 104.523 95.384C107.424 94.5307 109.686 92.952 111.307 90.648C112.416 89.7093 113.184 87.7467 113.611 84.76C114.038 81.688 114.464 76.9947 114.891 70.68C113.611 70.424 111.947 70.296 109.899 70.296L104.907 70.424C103.883 70.5093 102.475 70.552 100.683 70.552C99.659 70.552 99.019 70.5093 98.763 70.424V71.448C98.763 74.776 97.995 77.2933 96.459 79C95.0083 80.7067 93.2163 81.56 91.083 81.56C84.5123 81.56 81.099 76.0987 80.843 65.176V62.872ZM101.323 52.76C101.323 53.016 101.024 53.144 100.427 53.144C100 53.144 99.147 53.1013 97.867 53.016C96.587 52.9307 95.051 52.888 93.259 52.888L84.939 53.016C83.3177 53.016 82.251 52.9307 81.739 52.76C81.227 52.5893 80.971 52.2053 80.971 51.608C80.971 45.0373 84.5977 41.752 91.851 41.752C93.4723 41.752 94.9657 42.1787 96.331 43.032C97.867 43.8 99.0617 44.952 99.915 46.488C100.854 48.024 101.323 49.6453 101.323 51.352V52.76ZM98.251 46.616C97.1417 45.9333 95.8617 45.592 94.411 45.592C91.4243 45.592 89.2483 46.104 87.883 47.128C86.603 48.152 85.707 49.688 85.195 51.736L87.627 51.608H93.259L98.763 51.736L100.043 51.864V51.352C100.043 49.3893 99.4883 47.8533 98.379 46.744L98.251 46.616ZM141.43 3.60799H143.99C143.99 7.53333 143.905 16.5787 143.734 30.744C143.649 34.9253 143.563 40.4293 143.478 47.256C143.393 54.0827 143.35 62.0613 143.35 71.192C143.35 82.968 143.521 91.6293 143.862 97.176C143.179 97.8587 142.241 98.328 141.046 98.584C139.851 98.84 138.315 98.968 136.438 98.968C133.963 98.968 132.086 98.9253 130.806 98.84H130.934L127.862 98.712C125.985 98.712 124.406 98.9253 123.126 99.352L123.254 96.28C122.23 96.28 121.334 96.4507 120.566 96.792C121.163 88.4293 121.462 80.7067 121.462 73.624C121.462 68.4187 121.291 60.44 120.95 49.688C120.609 39.1067 120.438 31.0427 120.438 25.496C120.438 16.536 120.822 8.25866 121.59 0.663994L141.43 1.048V3.60799ZM122.742 1.94399C121.974 10.136 121.59 18.2853 121.59 26.392C121.59 33.7307 121.803 41.7947 122.23 50.584C122.571 61.336 122.742 69.3147 122.742 74.52C122.742 81.3467 122.486 88.1733 121.974 95C122.145 94.9147 122.827 94.872 124.022 94.872C125.814 94.872 127.265 94.9147 128.374 95L134.134 95.128C136.011 95.128 137.377 95.0853 138.23 95C139.169 94.9147 139.766 94.6587 140.022 94.232C139.766 90.0507 139.638 81.4747 139.638 68.504C139.638 58.6907 139.723 45.2507 139.894 28.184L140.15 2.328L122.742 1.94399ZM167.805 3.60799H170.365C170.365 7.53333 170.28 16.5787 170.109 30.744C170.024 34.9253 169.938 40.4293 169.853 47.256C169.768 54.0827 169.725 62.0613 169.725 71.192C169.725 82.968 169.896 91.6293 170.237 97.176C169.554 97.8587 168.616 98.328 167.421 98.584C166.226 98.84 164.69 98.968 162.813 98.968C160.338 98.968 158.461 98.9253 157.181 98.84H157.309L154.237 98.712C152.36 98.712 150.781 98.9253 149.501 99.352L149.629 96.28C148.605 96.28 147.709 96.4507 146.941 96.792C147.538 88.4293 147.837 80.7067 147.837 73.624C147.837 68.4187 147.666 60.44 147.325 49.688C146.984 39.1067 146.813 31.0427 146.813 25.496C146.813 16.536 147.197 8.25866 147.965 0.663994L167.805 1.048V3.60799ZM149.117 1.94399C148.349 10.136 147.965 18.2853 147.965 26.392C147.965 33.7307 148.178 41.7947 148.605 50.584C148.946 61.336 149.117 69.3147 149.117 74.52C149.117 81.3467 148.861 88.1733 148.349 95C148.52 94.9147 149.202 94.872 150.397 94.872C152.189 94.872 153.64 94.9147 154.749 95L160.509 95.128C162.386 95.128 163.752 95.0853 164.605 95C165.544 94.9147 166.141 94.6587 166.397 94.232C166.141 90.0507 166.013 81.4747 166.013 68.504C166.013 58.6907 166.098 45.2507 166.269 28.184L166.525 2.328L149.117 1.94399ZM175.108 36.12C176.388 33.3893 178.905 31.3413 182.66 29.976C186.5 28.6107 190.809 27.928 195.588 27.928C196.271 28.0133 197.849 28.056 200.324 28.056L203.396 27.928C206.639 27.928 209.796 28.44 212.868 29.464C215.94 30.488 218.5 31.9813 220.548 33.944H220.42C220.676 34.2853 221.06 34.7547 221.572 35.352C222.084 35.864 222.553 36.248 222.98 36.504L222.852 36.376C225.156 37.912 226.692 40.984 227.46 45.592C228.313 50.2 228.74 55.9173 228.74 62.744C228.74 68.8027 228.356 75.0747 227.588 81.56C226.82 88.0453 225.753 92.056 224.388 93.592C222.596 96.152 220.164 97.9013 217.092 98.84C214.02 99.7787 210.436 100.248 206.34 100.248C201.988 100.248 198.447 100.12 195.716 99.864C193.071 99.608 190.425 98.8827 187.78 97.688C185.22 96.5787 182.745 94.7867 180.356 92.312L179.204 91.16C176.559 88.6853 174.767 85.528 173.828 81.688C172.889 77.7627 172.42 73.1973 172.42 67.992V63.384L172.548 59.032C172.548 58.008 172.505 57.0267 172.42 56.088C172.335 55.1493 172.292 54.296 172.292 53.528C172.292 49.8587 172.377 47.0853 172.548 45.208C172.719 43.3307 173.359 41.0693 174.468 38.424H174.34C174.425 37.912 174.511 37.4 174.596 36.888C174.767 36.376 174.937 36.0347 175.108 35.864V35.992L174.98 36.376L175.108 36.12ZM173.7 58.776V68.248C173.7 75.7573 174.937 81.9867 177.412 86.936C179.972 91.8 184.537 94.7867 191.108 95.896L197.124 96.024C200.025 96.1947 202.287 96.28 203.908 96.28C207.919 96.28 211.332 95.8533 214.148 95C216.964 94.1467 219.183 92.568 220.804 90.264C222.255 88.8133 223.193 85.5707 223.62 80.536C224.132 75.5013 224.559 68.7173 224.9 60.184C224.9 59.416 224.815 56.6853 224.644 51.992C224.473 47.2133 223.961 43.416 223.108 40.6C222.34 37.6987 221.188 35.7787 219.652 34.84C215.812 31.0853 210.223 29.208 202.884 29.208L198.02 29.336C196.911 29.336 196.057 29.2933 195.46 29.208C191.108 29.208 187.097 29.848 183.428 31.128C179.759 32.408 177.369 34.2427 176.26 36.632C175.321 39.96 174.639 42.904 174.212 45.464C173.785 48.024 173.572 50.6693 173.572 53.4L173.7 58.776ZM199.94 48.536C205.913 48.536 208.9 52.9733 208.9 61.848C208.9 65.5173 208.729 68.4613 208.388 70.68C208.047 72.8133 207.151 74.5627 205.7 75.928C204.249 77.2933 202.031 77.976 199.044 77.976C196.484 77.976 194.393 77.4213 192.772 76.312C191.151 75.2027 190.34 73.4107 190.34 70.936C190.425 69.8267 190.468 67.864 190.468 65.048C190.468 61.1227 190.553 58.0933 190.724 55.96C190.98 53.7413 191.492 52.3333 192.26 51.736C193.967 49.6027 196.527 48.536 199.94 48.536ZM195.588 55.32C194.905 55.7467 194.479 57.7093 194.308 61.208C194.223 64.6213 194.18 68.76 194.18 73.624C194.18 74.9893 194.607 75.8427 195.46 76.184C196.313 76.5253 197.508 76.696 199.044 76.696C204.249 76.696 206.852 74.904 206.852 71.32C207.364 66.712 207.62 63.384 207.62 61.336C207.62 58.52 207.279 56.344 206.596 54.808C205.999 53.272 204.548 52.504 202.244 52.504C201.732 52.504 200.793 52.5893 199.428 52.76H199.556C197.935 53.1867 196.697 53.9547 195.844 55.064L195.588 55.32Z" fill="black"/>
</svg>
