<svg width="485" height="412" viewBox="0 0 485 412" fill="none" xmlns="http://www.w3.org/2000/svg">
<path d="M19.6823 316.689C21.7726 331.385 26.0167 360.904 31.2743 386.273C32.5845 392.596 32.3512 398.911 32.3512 394.825C32.3512 350.529 17.6552 312.635 16.4834 271.43C16.1013 257.997 40.7126 257.589 56.5171 256.512C64.0114 256.002 70.2312 261.706 74.5069 266.996C91.1719 287.611 93.5419 316.563 99.908 335.661C107.477 358.367 85.1804 278.809 79.8595 229.306C71.2213 148.939 120.907 99.4178 149.412 61.3478C168.558 35.7763 192.739 21.1241 208.544 16.88C236.017 9.50253 245.569 56.8504 255.07 83.265C266.443 114.881 277.241 139.198 285.697 165.613C297.752 203.266 294.154 240.613 300.457 246.979C310.94 240.803 327.853 228.07 363.548 203.936C388.791 186.073 428.507 156.808 469.428 126.656" stroke="black" stroke-width="31" stroke-linecap="round"/>
</svg>
