<svg width="1293" height="708" viewBox="0 0 1293 708" fill="none" xmlns="http://www.w3.org/2000/svg">
<path d="M16.1169 455.927C18.2073 470.623 30.8129 500.141 47.7258 525.511C70.189 559.206 111.007 590.977 173.18 649.951C204.349 679.517 225.09 692.392 234.592 692.424C256.316 692.496 244.157 621.003 269.368 544.926C299.285 454.649 296.986 424.381 288.53 397.967C283.552 382.419 280.073 367.308 276.906 365.123C243.919 342.361 315.61 547.523 346.49 631.106C348.847 637.486 358.05 637.472 364.417 635.414C392.843 626.221 398.211 584.896 414.079 556.328C429.668 528.26 427.856 500.395 433.114 471.89C440.975 429.269 427.856 399.044 422.598 373.674C420.025 361.255 419.431 348.305 415.219 341.939C404.521 325.772 419.368 386.121 426.779 412.536C435.667 444.215 438.371 478.984 453.13 506.508C466.581 531.591 497.408 536.121 522.778 549.835C529.045 553.223 535.415 555.124 540.736 552.021C567.32 536.513 569.241 500.395 581.941 475.025C598.039 442.871 647.155 367.878 673.791 297.756C705.281 214.857 672.872 78.2672 660.172 39.0253C654.856 22.602 636.956 16.7598 624.319 15.6829C553.912 9.68334 613.582 240.176 619.98 281.603C626.87 326.216 641.074 354.449 651.62 396.605C667.849 461.47 683.324 487.536 689.627 498.083C692.706 503.235 700.111 504.449 706.477 504.481C733.927 504.617 761.301 468.723 803.552 426.535C831.09 399.038 831.107 367.371 838.518 332.564C843.991 306.861 835.414 284.96 825.944 273.368C816.477 261.78 801.652 257.469 789.015 258.482C772.006 259.846 769.916 297.376 772.007 329.016C774.265 363.201 793.1 386.121 814.162 405.188C840.208 428.767 881.656 449.466 931.255 468.533C951.58 476.346 966.221 483.355 978.858 484.432C1010.41 487.121 1035.84 439.204 1075.93 394.863C1102.03 365.999 1099.31 339.88 1096.17 324.075C1089.46 290.245 1048.76 272.355 1017.09 253.288C1008.96 248.393 1000.24 244.863 992.794 242.71C985.351 240.556 979.08 240.556 975.849 249.962C957.668 302.9 993.649 335.446 1006.35 359.77C1019.37 384.713 1059.02 384.094 1086.54 392.551C1137 398.917 1217.38 390.555 1247 385.203C1255.45 384.158 1265.9 382.067 1276.67 379.914" stroke="black" stroke-width="31" stroke-linecap="round"/>
</svg>
