<svg width="850" height="586" viewBox="0 0 850 586" fill="none" xmlns="http://www.w3.org/2000/svg">
<path d="M108.07 193.024C108.07 197.205 110.161 314.329 114.373 492.707C115.871 556.132 118.586 564.476 118.617 564.603C126.134 594.668 74.3711 499.358 52.2006 471.835C33.4188 448.518 25.7859 425.372 17.3294 409.567C13.6698 402.727 17.2344 395.853 24.5824 391.577C59.5857 371.209 143.29 376.723 292.308 346.254C324.04 339.766 342.065 328.328 394.609 279.077C447.153 229.827 532.858 139.941 578.055 90.501C623.251 41.0606 625.341 34.7895 623.283 29.4686C621.224 24.1477 614.953 19.9669 606.496 17.8132C598.04 15.6595 587.588 15.6595 581.159 18.795C569.751 24.3582 568.395 43.0243 565.227 71.371C559.525 122.405 580.874 240.722 608.302 374.759C625.922 460.866 650.679 503.349 658.059 508.67C683.5 527.013 678.044 436.013 708.639 408.522C737.864 382.262 756.274 357.783 759.442 345.146C761.011 338.883 760.518 332.509 760.518 333.459C760.518 357.746 771.034 387.111 779.49 414.635C787.929 442.1 796.371 465.342 804.796 471.708C821.709 452.8 832.288 433.796 834.41 421.159C834.441 414.793 832.351 408.522 823.863 402.061" stroke="black" stroke-width="31" stroke-linecap="round"/>
</svg>
